<?xml version="1.0" encoding="utf-8" ?>
<svg baseProfile="full" height="100%" version="1.1" width="100%" xmlns="http://www.w3.org/2000/svg" xmlns:ev="http://www.w3.org/2001/xml-events" xmlns:xlink="http://www.w3.org/1999/xlink"><defs /><text font-family="Alata" font-size="20" transform="rotate(-45 0 -13.0)" x="0" y="-13.0">Bourg-en-bresse Terminus</text><circle cx="0" cy="0" fill="rgb(255,255,255)" r="6.5" stroke="rgb(5,124,9)" stroke-width="1" /><text font-family="Alata" font-size="20" transform="rotate(-45 38.0 -13.0)" x="38.0" y="-13.0">Bourg-en Bresse</text><circle cx="38.0" cy="0" fill="rgb(255,255,255)" r="6.5" stroke="rgb(5,124,9)" stroke-width="1" /><text font-family="Alata" font-size="20" transform="rotate(-45 76.0 -13.0)" x="76.0" y="-13.0">Préonnas</text><circle cx="76.0" cy="0" fill="rgb(255,255,255)" r="6.5" stroke="rgb(5,124,9)" stroke-width="1" /><text font-family="Alata" font-size="20" transform="rotate(-45 114.0 -13.0)" x="114.0" y="-13.0">Servas Lent</text><circle cx="114.0" cy="0" fill="rgb(255,255,255)" r="6.5" stroke="rgb(5,124,9)" stroke-width="1" /><text font-family="Alata" font-size="20" transform="rotate(-45 152.0 -13.0)" x="152.0" y="-13.0">Saint-Paul-de-Varax</text><circle cx="152.0" cy="0" fill="rgb(255,255,255)" r="6.5" stroke="rgb(5,124,9)" stroke-width="1" /><text font-family="Alata" font-size="20" transform="rotate(-45 190.0 -13.0)" x="190.0" y="-13.0">Marlieux Châtillon</text><circle cx="190.0" cy="0" fill="rgb(255,255,255)" r="6.5" stroke="rgb(5,124,9)" stroke-width="1" /><text font-family="Alata" font-size="20" transform="rotate(-45 228.0 -13.0)" x="228.0" y="-13.0">Villars les Dombes</text><circle cx="228.0" cy="0" fill="rgb(255,255,255)" r="6.5" stroke="rgb(5,124,9)" stroke-width="1" /><text font-family="Alata" font-size="20" transform="rotate(-45 266.0 -13.0)" x="266.0" y="-13.0">Saint-André-de-Corcy</text><circle cx="266.0" cy="0" fill="rgb(255,255,255)" r="6.5" stroke="rgb(5,124,9)" stroke-width="1" /><text font-family="Alata" font-size="20" transform="rotate(-45 304.0 -13.0)" x="304.0" y="-13.0">Mionnay</text><circle cx="304.0" cy="0" fill="rgb(255,255,255)" r="6.5" stroke="rgb(5,124,9)" stroke-width="1" /><text font-family="Alata" font-size="20" transform="rotate(-45 342.0 -13.0)" x="342.0" y="-13.0">Les échets</text><circle cx="342.0" cy="0" fill="rgb(255,255,255)" r="6.5" stroke="rgb(5,124,9)" stroke-width="1" /><text font-family="Alata" font-size="20" transform="rotate(-45 380.0 -13.0)" x="380.0" y="-13.0">Cailloux sur Fontaines</text><circle cx="380.0" cy="0" fill="rgb(255,255,255)" r="6.5" stroke="rgb(5,124,9)" stroke-width="1" /><text font-family="Alata" font-size="20" transform="rotate(-45 418.0 -13.0)" x="418.0" y="-13.0">Collonges Fontaines</text><circle cx="418.0" cy="0" fill="rgb(255,255,255)" r="6.5" stroke="rgb(5,124,9)" stroke-width="1" /><text font-family="Alata" font-size="20" transform="rotate(-45 456.0 -13.0)" x="456.0" y="-13.0">Saint Rambert</text><circle cx="456.0" cy="0" fill="rgb(255,255,255)" r="6.5" stroke="rgb(5,124,9)" stroke-width="1" /><text font-family="Alata" font-size="20" transform="rotate(-45 494.0 -13.0)" x="494.0" y="-13.0">Lyon Vaise</text><circle cx="494.0" cy="0" fill="rgb(255,255,255)" r="6.5" stroke="rgb(5,124,9)" stroke-width="1" /><text font-family="Alata" font-size="20" transform="rotate(-45 532.0 -13.0)" x="532.0" y="-13.0">Gorge de Loup</text><circle cx="532.0" cy="0" fill="rgb(255,255,255)" r="6.5" stroke="rgb(5,124,9)" stroke-width="1" /><text font-family="Alata" font-size="20" transform="rotate(-45 570.0 -13.0)" x="570.0" y="-13.0">Lyon Perrache</text><circle cx="570.0" cy="0" fill="rgb(255,255,255)" r="6.5" stroke="rgb(5,124,9)" stroke-width="1" /><text font-family="Alata" font-size="20" transform="rotate(-45 608.0 -13.0)" x="608.0" y="-13.0">Jean macé</text><circle cx="608.0" cy="0" fill="rgb(255,255,255)" r="6.5" stroke="rgb(5,124,9)" stroke-width="1" /><text font-family="Alata" font-size="20" transform="rotate(-45 646.0 -13.0)" x="646.0" y="-13.0">Saint-Jean-de-Dieu</text><circle cx="646.0" cy="0" fill="rgb(255,255,255)" r="6.5" stroke="rgb(5,124,9)" stroke-width="1" /><text font-family="Alata" font-size="20" transform="rotate(-45 684.0 -13.0)" x="684.0" y="-13.0">Vénessieux</text><circle cx="684.0" cy="0" fill="rgb(255,255,255)" r="6.5" stroke="rgb(5,124,9)" stroke-width="1" /><text font-family="Alata" font-size="20" transform="rotate(-45 722.0 -13.0)" x="722.0" y="-13.0">Saint-Priest</text><circle cx="722.0" cy="0" fill="rgb(255,255,255)" r="6.5" stroke="rgb(5,124,9)" stroke-width="1" /><text font-family="Alata" font-size="20" transform="rotate(-45 760.0 -13.0)" x="760.0" y="-13.0">Saint-Quentin-Fallavier</text><circle cx="760.0" cy="0" fill="rgb(255,255,255)" r="6.5" stroke="rgb(5,124,9)" stroke-width="1" /><text font-family="Alata" font-size="20" transform="rotate(-45 798.0 -13.0)" x="798.0" y="-13.0">La verpillère</text><circle cx="798.0" cy="0" fill="rgb(255,255,255)" r="6.5" stroke="rgb(5,124,9)" stroke-width="1" /><text font-family="Alata" font-size="20" transform="rotate(-45 836.0 -13.0)" x="836.0" y="-13.0">L'isle d'Abeau</text><circle cx="836.0" cy="0" fill="rgb(255,255,255)" r="6.5" stroke="rgb(5,124,9)" stroke-width="1" /><text font-family="Alata" font-size="20" transform="rotate(-45 874.0 -13.0)" x="874.0" y="-13.0">Bourgoin-Jailleu</text><circle cx="874.0" cy="0" fill="rgb(255,255,255)" r="6.5" stroke="rgb(5,124,9)" stroke-width="1" /><text font-family="Alata" font-size="20" transform="rotate(-45 912.0 -13.0)" x="912.0" y="-13.0">Bourgoin-Jailleu La casse</text><circle cx="912.0" cy="0" fill="rgb(255,255,255)" r="6.5" stroke="rgb(5,124,9)" stroke-width="1" /><path d="M 0 0 L 912.0 0" fill="none" stroke="rgb(5,124,9)" stroke-width="14.0" /><text font-family="Alata" font-size="20" transform="rotate(-45 0 -13.0)" x="0" y="-13.0">Bourg-en-bresse Terminus</text><circle cx="0" cy="0" fill="rgb(255,255,255)" r="6.5" stroke="rgb(5,124,9)" stroke-width="1" /><text font-family="Alata" font-size="20" transform="rotate(-45 38.0 -13.0)" x="38.0" y="-13.0">Bourg-en Bresse</text><circle cx="38.0" cy="0" fill="rgb(255,255,255)" r="6.5" stroke="rgb(5,124,9)" stroke-width="1" /><text font-family="Alata" font-size="20" transform="rotate(-45 76.0 -13.0)" x="76.0" y="-13.0">Préonnas</text><circle cx="76.0" cy="0" fill="rgb(255,255,255)" r="6.5" stroke="rgb(5,124,9)" stroke-width="1" /><text font-family="Alata" font-size="20" transform="rotate(-45 114.0 -13.0)" x="114.0" y="-13.0">Servas Lent</text><circle cx="114.0" cy="0" fill="rgb(255,255,255)" r="6.5" stroke="rgb(5,124,9)" stroke-width="1" /><text font-family="Alata" font-size="20" transform="rotate(-45 152.0 -13.0)" x="152.0" y="-13.0">Saint-Paul-de-Varax</text><circle cx="152.0" cy="0" fill="rgb(255,255,255)" r="6.5" stroke="rgb(5,124,9)" stroke-width="1" /><text font-family="Alata" font-size="20" transform="rotate(-45 190.0 -13.0)" x="190.0" y="-13.0">Marlieux Châtillon</text><circle cx="190.0" cy="0" fill="rgb(255,255,255)" r="6.5" stroke="rgb(5,124,9)" stroke-width="1" /><text font-family="Alata" font-size="20" transform="rotate(-45 228.0 -13.0)" x="228.0" y="-13.0">Villars les Dombes</text><circle cx="228.0" cy="0" fill="rgb(255,255,255)" r="6.5" stroke="rgb(5,124,9)" stroke-width="1" /><text font-family="Alata" font-size="20" transform="rotate(-45 266.0 -13.0)" x="266.0" y="-13.0">Saint-André-de-Corcy</text><circle cx="266.0" cy="0" fill="rgb(255,255,255)" r="6.5" stroke="rgb(5,124,9)" stroke-width="1" /><text font-family="Alata" font-size="20" transform="rotate(-45 304.0 -13.0)" x="304.0" y="-13.0">Mionnay</text><circle cx="304.0" cy="0" fill="rgb(255,255,255)" r="6.5" stroke="rgb(5,124,9)" stroke-width="1" /><text font-family="Alata" font-size="20" transform="rotate(-45 342.0 -13.0)" x="342.0" y="-13.0">Les échets</text><circle cx="342.0" cy="0" fill="rgb(255,255,255)" r="6.5" stroke="rgb(5,124,9)" stroke-width="1" /><text font-family="Alata" font-size="20" transform="rotate(-45 380.0 -13.0)" x="380.0" y="-13.0">Cailloux sur Fontaines</text><circle cx="380.0" cy="0" fill="rgb(255,255,255)" r="6.5" stroke="rgb(5,124,9)" stroke-width="1" /><text font-family="Alata" font-size="20" transform="rotate(-45 418.0 -13.0)" x="418.0" y="-13.0">Collonges Fontaines</text><circle cx="418.0" cy="0" fill="rgb(255,255,255)" r="6.5" stroke="rgb(5,124,9)" stroke-width="1" /><text font-family="Alata" font-size="20" transform="rotate(-45 456.0 -13.0)" x="456.0" y="-13.0">Saint Rambert</text><circle cx="456.0" cy="0" fill="rgb(255,255,255)" r="6.5" stroke="rgb(5,124,9)" stroke-width="1" /><text font-family="Alata" font-size="20" transform="rotate(-45 494.0 -13.0)" x="494.0" y="-13.0">Lyon Vaise</text><circle cx="494.0" cy="0" fill="rgb(255,255,255)" r="6.5" stroke="rgb(5,124,9)" stroke-width="1" /><text font-family="Alata" font-size="20" transform="rotate(-45 532.0 -13.0)" x="532.0" y="-13.0">Gorge de Loup</text><circle cx="532.0" cy="0" fill="rgb(255,255,255)" r="6.5" stroke="rgb(5,124,9)" stroke-width="1" /><text font-family="Alata" font-size="20" transform="rotate(-45 570.0 -13.0)" x="570.0" y="-13.0">Lyon Perrache</text><circle cx="570.0" cy="0" fill="rgb(255,255,255)" r="6.5" stroke="rgb(5,124,9)" stroke-width="1" /><text font-family="Alata" font-size="20" transform="rotate(-45 608.0 -13.0)" x="608.0" y="-13.0">Jean macé</text><circle cx="608.0" cy="0" fill="rgb(255,255,255)" r="6.5" stroke="rgb(5,124,9)" stroke-width="1" /><text font-family="Alata" font-size="20" transform="rotate(-45 646.0 -13.0)" x="646.0" y="-13.0">Saint-Jean-de-Dieu</text><circle cx="646.0" cy="0" fill="rgb(255,255,255)" r="6.5" stroke="rgb(5,124,9)" stroke-width="1" /><text font-family="Alata" font-size="20" transform="rotate(-45 684.0 -13.0)" x="684.0" y="-13.0">Vénessieux</text><circle cx="684.0" cy="0" fill="rgb(255,255,255)" r="6.5" stroke="rgb(5,124,9)" stroke-width="1" /><text font-family="Alata" font-size="20" transform="rotate(-45 722.0 -13.0)" x="722.0" y="-13.0">Saint-Priest</text><circle cx="722.0" cy="0" fill="rgb(255,255,255)" r="6.5" stroke="rgb(5,124,9)" stroke-width="1" /><text font-family="Alata" font-size="20" transform="rotate(-45 760.0 -13.0)" x="760.0" y="-13.0">Saint-Quentin-Fallavier</text><circle cx="760.0" cy="0" fill="rgb(255,255,255)" r="6.5" stroke="rgb(5,124,9)" stroke-width="1" /><text font-family="Alata" font-size="20" transform="rotate(-45 798.0 -13.0)" x="798.0" y="-13.0">La verpillère</text><circle cx="798.0" cy="0" fill="rgb(255,255,255)" r="6.5" stroke="rgb(5,124,9)" stroke-width="1" /><text font-family="Alata" font-size="20" transform="rotate(-45 836.0 -13.0)" x="836.0" y="-13.0">L'isle d'Abeau</text><circle cx="836.0" cy="0" fill="rgb(255,255,255)" r="6.5" stroke="rgb(5,124,9)" stroke-width="1" /><text font-family="Alata" font-size="20" transform="rotate(-45 874.0 -13.0)" x="874.0" y="-13.0">Bourgoin-Jailleu</text><circle cx="874.0" cy="0" fill="rgb(255,255,255)" r="6.5" stroke="rgb(5,124,9)" stroke-width="1" /><text font-family="Alata" font-size="20" transform="rotate(-45 912.0 -13.0)" x="912.0" y="-13.0">Bourgoin-Jailleu La casse</text><circle cx="912.0" cy="0" fill="rgb(255,255,255)" r="6.5" stroke="rgb(5,124,9)" stroke-width="1" /></svg>